<?xml version="1.0" encoding="UTF-8"?>
<svg id="Layer_2" data-name="Layer 2" xmlns="http://www.w3.org/2000/svg" viewBox="0 0 419.66 428.78">
  <defs>
    <style>
      .cls-1 {
        fill: #111111;
      }
    </style>
  </defs>
  <g id="Layer_1-2" data-name="Layer 1">
    <g>
      <path class="cls-1" d="M174.73,3.2c19.16-3.39,38.76-4.15,58.11-1.99,30.12,3.6,59.35,14.06,85.14,30,25.1,15.83,47.08,36.67,63.75,61.26,21.31,31.25,34.5,68.1,37.43,105.84.99,18.04.71,36.26-2.69,54.05-11.89,66.02-56.15,125.62-116.51,155.16-1.74.87-3.47,1.74-5.22,2.58-10.74,4.87-21.85,9.06-33.29,11.93l-.65.39c-11.48,2.78-23.11,4.91-34.87,5.97-19.46,1.07-39.02-.02-58.11-4.04-5.05-1.27-10.08-2.59-15.09-3.96-35.74-10.59-68.33-31.22-93.8-58.37-25.54-27.8-43.98-62.03-52.95-98.72-6.88-27.03-7.66-55.49-3.17-82.97,7-39.92,24.89-77.96,51.49-108.56,18.88-21.74,42.38-39.32,68.4-51.61,2.99-1.38,5.98-2.75,9-4.07,13.86-5.76,28.28-10.07,43.03-12.89ZM169.88,27.74c-22.11,4.82-43.08,14.2-62,26.53-32.01,21.09-56.88,52.44-71.26,87.88-13.08,32.77-18.03,69.17-11.57,104.03,6.73,39.82,26.51,77.33,55.21,105.71,27.19,26.87,62.75,44.98,100.38,51.53,30.09,4.42,61.43,2.49,90.07-8.17,46.04-15.99,84.56-51.09,106.43-94.46,16.54-31.96,23.04-68.78,19.7-104.53-1.57-18.27-6.59-36.04-12.89-53.19-9.85-23.66-23.65-45.92-41.94-64-24.32-25.11-56.03-43.05-90.09-50.96-26.85-6.43-55.13-6.51-82.04-.37Z"/>
      <path class="cls-1" d="M197.99,46.57c4.63.02,9.24-.73,13.88-.42,8.82.7,17.79,0,26.51,1.78,9.39,2.21,18.1,10.22,18.39,20.31.45,19.66.11,39.35.21,59.02.01,74,0,148.01.02,222.01-.21,6.59.91,13.68-2.42,19.72-4.52,8.5-14.45,12.79-23.76,12.85-10.71.99-21.5,1.66-32.23.61-6.99-.84-14.33.04-20.95-2.82-7.76-3.2-14.52-10.57-14.51-19.34.11-97-.01-194.01.09-291.01-.32-8.38,5.62-15.97,13.03-19.32,6.75-3.3,14.42-3.1,21.74-3.39ZM193.34,75.52c-.54,1.53-1.18,3.09-1.08,4.75.01,90.44-.05,180.88-.01,271.31.45.5,1.33,1.48,1.77,1.98,10.26.13,20.53.1,30.79.03,2.14.02,3.09-2.37,2.9-4.2.08-89.74-.06-179.48.02-269.21.17-1.66-.48-3.17-1.14-4.64-11.09-.22-22.17-.01-33.25-.02Z"/>
      <path class="cls-1" d="M114.28,79.77c9.02-6.6,18.56-12.59,28.81-17.11.23,101.2.07,202.41.06,303.61-10.28-4.48-19.6-10.8-28.99-16.85.02-40.27-.17-80.55.07-120.82-3.44-.86-6.96-.13-10.43-.17-5.43.02-10.85-.04-16.27.09-.15,31.84.16,63.7-.26,95.54-6.3-7.63-11.86-15.86-17.08-24.26-4.08-6.48-6.89-13.62-10.3-20.44-.99-1.88-1.47-3.97-1.31-6.08.18-40.4-.21-80.81.14-121.2,6.44-16.12,15.55-31.1,26.28-44.72.74-.88,1.56-1.68,2.4-2.47.22,31.75.04,63.5.07,95.25,8.87.12,17.75.11,26.63-.02.19-40.12-.22-80.25.18-120.35Z"/>
      <path class="cls-1" d="M276.77,81.28c.45-6.21.15-12.45.38-18.66,33.83,16.14,62.2,43.68,78.66,77.43,2.3,4.85,5.7,9.61,5.4,15.23.08,16.33-.03,32.66.03,49,.15,3.72-1.13,7.38-3.09,10.5-3.24,4.55-8.93,6.18-13.3,9.36,5.97,15.47,11.71,31.05,16.25,47.01,1.46,5.3-1.99,10.03-4.02,14.64-6.42,13.87-15.08,26.58-24.62,38.47-.67-8.65-.15-17.34-.28-26-.02-5.15-1.91-10.02-2.87-15.02-2.84-14.92-5.67-29.84-8.47-44.76-5.04,2.65-9.65,6.04-14.61,8.81-.54,3.3-.8,6.66-.39,10-.41,6.64-.2,13.31-.14,19.97-.09,5.34-.21,10.68.1,16.02-.04,5.38.04,10.75-.12,16.14-.11,13.44.12,26.88-.16,40.32-9.12,6.15-18.46,12.07-28.44,16.75-.05-29.07-.03-58.14-.03-87.21-.08-4.34.23-8.69-.29-13,.64-12.65.13-25.35.28-38.02-.04-3.67.21-7.34-.3-10.98.71-16.31.11-32.67.32-49-.2-11.99.37-24.03-.33-36,.49-8.31.5-16.69.04-25,.43-8.64.5-17.36,0-26ZM306.22,117.57c-.33,3.56-.86,7.13-.38,10.71-.32,3.99-.32,8.01.03,12-.5,8.98-.1,17.99-.24,26.98.19,10.69-.39,21.39.38,32.05-.35,5.72-.77,11.49.1,17.2,7.65-4.5,15.63-8.4,23.22-13,1.53-.81,2.46-2.48,2.25-4.22-.09-14.76,1.08-29.5.5-44.26-2.24-6.26-6.22-11.69-9.72-17.28-4.65-7.29-10.42-13.74-16.14-20.18Z"/>
    </g>
  </g>
</svg>
